<svg width="40" height="40" viewBox="0 0 40 40" fill="none" xmlns="http://www.w3.org/2000/svg">
<path d="M36.3046 20.1797H3.30078" stroke="#0784A8" stroke-width="3.30038" strokeLinecap="round" strokeLinejoin="round"/>
<path d="M8.99394 8.81023L3.30078 20.18V30.0812C3.30078 30.9565 3.6485 31.796 4.26744 32.4149C4.88638 33.0339 5.72585 33.3816 6.60116 33.3816H33.0042C33.8795 33.3816 34.719 33.0339 35.3379 32.4149C35.9569 31.796 36.3046 30.9565 36.3046 30.0812V20.18L30.6114 8.81023C30.3382 8.26036 29.917 7.79762 29.3952 7.47403C28.8734 7.15045 28.2716 6.97884 27.6576 6.97852H11.9478C11.3338 6.97884 10.732 7.15045 10.2102 7.47403C9.68838 7.79762 9.26717 8.26036 8.99394 8.81023Z" stroke="#0784A8" stroke-width="3.30038" strokeLinecap="round" strokeLinejoin="round"/>
<path d="M9.90137 26.7793H9.91615" stroke="#0784A8" stroke-width="3.30038" strokeLinecap="round" strokeLinejoin="round"/>
<path d="M16.5 26.7793H16.5148" stroke="#0784A8" stroke-width="3.30038" strokeLinecap="round" strokeLinejoin="round"/>
</svg>
