<svg width="46" height="47" viewBox="0 0 46 47" fill="none" xmlns="http://www.w3.org/2000/svg">
<path d="M28.7503 4.5H11.5003C10.4837 4.5 9.50864 4.90387 8.78975 5.62276C8.07086 6.34165 7.66699 7.31667 7.66699 8.33333V39C7.66699 40.0167 8.07086 40.9917 8.78975 41.7106C9.50864 42.4295 10.4837 42.8333 11.5003 42.8333H34.5003C35.517 42.8333 36.492 42.4295 37.2109 41.7106C37.9298 40.9917 38.3337 40.0167 38.3337 39V14.0833L28.7503 4.5Z" stroke="#7B50F0" stroke-width="3.83333" strokeLinecap="round" strokeLinejoin="round"/>
<path d="M26.833 4.5V12.1667C26.833 13.1833 27.2369 14.1584 27.9558 14.8772C28.6747 15.5961 29.6497 16 30.6663 16H38.333" stroke="#7B50F0" stroke-width="3.83333" strokeLinecap="round" strokeLinejoin="round"/>
<path d="M19.1663 17.917H15.333" stroke="#7B50F0" stroke-width="3.83333" strokeLinecap="round" strokeLinejoin="round"/>
<path d="M30.6663 25.584H15.333" stroke="#7B50F0" stroke-width="3.83333" strokeLinecap="round" strokeLinejoin="round"/>
<path d="M30.6663 33.25H15.333" stroke="#7B50F0" stroke-width="3.83333" strokeLinecap="round" strokeLinejoin="round"/>
</svg>
