<svg width="47" height="47" viewBox="0 0 47 47" fill="none" xmlns="http://www.w3.org/2000/svg">
<path d="M30.7656 25.5841L40.7764 32.2579C40.9207 32.354 41.0883 32.409 41.2615 32.4173C41.4346 32.4256 41.6068 32.3868 41.7596 32.305C41.9124 32.2231 42.0402 32.1014 42.1293 31.9527C42.2184 31.804 42.2655 31.6339 42.2656 31.4606V15.7516C42.2657 15.583 42.2212 15.4173 42.1368 15.2714C42.0523 15.1254 41.9309 15.0043 41.7847 14.9203C41.6384 14.8363 41.4727 14.7924 41.304 14.793C41.1354 14.7935 40.9699 14.8386 40.8243 14.9236L30.7656 20.7924" stroke="#7B50F0" stroke-width="3.83333" stroke-linecap="round" stroke-linejoin="round"/>
<path d="M26.9316 12.167H7.76497C5.64788 12.167 3.93164 13.8832 3.93164 16.0003V31.3337C3.93164 33.4508 5.64788 35.167 7.76497 35.167H26.9316C29.0487 35.167 30.765 33.4508 30.765 31.3337V16.0003C30.765 13.8832 29.0487 12.167 26.9316 12.167Z" stroke="#7B50F0" stroke-width="3.83333" stroke-linecap="round" stroke-linejoin="round"/>
</svg>
