<svg width="47" height="47" viewBox="0 0 47 47" fill="none" xmlns="http://www.w3.org/2000/svg">
<path d="M17.4469 33.2507H13.6136C11.0719 33.2507 8.63439 32.241 6.83717 30.4438C5.03994 28.6465 4.03027 26.209 4.03027 23.6673C4.03027 21.1257 5.03994 18.6881 6.83717 16.8909C8.63439 15.0937 11.0719 14.084 13.6136 14.084H17.4469" stroke="#7B50F0" stroke-width="3.83333" strokeLinecap="round" strokeLinejoin="round"/>
<path d="M28.9482 14.084H32.7816C35.3232 14.084 37.7608 15.0937 39.558 16.8909C41.3552 18.6881 42.3649 21.1257 42.3649 23.6673C42.3649 26.209 41.3552 28.6465 39.558 30.4438C37.7608 32.241 35.3232 33.2507 32.7816 33.2507H28.9482" stroke="#7B50F0" stroke-width="3.83333" strokeLinecap="round" strokeLinejoin="round"/>
<path d="M15.5303 23.667H30.8636" stroke="#7B50F0" stroke-width="3.83333" strokeLinecap="round" strokeLinejoin="round"/>
</svg>
